HIERARCHY
ROOT Hips
{
	OFFSET 0.000000 0.000000 0.000000
	CHANNELS 6 Xposition Yposition Zposition Zrotation Yrotation Xrotation 
	JOINT LeftUpLeg_virtual
	{
		OFFSET 0.000000 0.000000 0.000000
		CHANNELS 3 Zrotation Yrotation Xrotation
		JOINT LeftUpLeg
		{
			OFFSET 8.479694 -4.795517 -0.379053
			CHANNELS 3 Zrotation Yrotation Xrotation
			JOINT LeftLeg
			{
				OFFSET 0.485052 -32.551468 0.112863
				CHANNELS 3 Zrotation Yrotation Xrotation
				JOINT LeftFoot
				{
					OFFSET 0.438033 -32.635670 -3.012641
					CHANNELS 3 Zrotation Yrotation Xrotation
					JOINT LeftToeBase
					{
						OFFSET 0.970169 -13.225353 11.864223
						CHANNELS 3 Zrotation Yrotation Xrotation
						End Site
						{
							OFFSET 0.000000 0.000000 0.000000
						}
					}
				}
			}
		}
	}
	JOINT RightUpLeg_virtual
	{
		OFFSET 0.000000 0.000000 0.000000
		CHANNELS 3 Zrotation Yrotation Xrotation
		JOINT RightUpLeg
		{
			OFFSET -8.479694 -4.795517 -0.379053
			CHANNELS 3 Zrotation Yrotation Xrotation
			JOINT RightLeg
			{
				OFFSET -0.484100 -32.551483 0.112903
				CHANNELS 3 Zrotation Yrotation Xrotation
				JOINT RightFoot
				{
					OFFSET -0.438985 -32.635651 -3.012681
					CHANNELS 3 Zrotation Yrotation Xrotation
					JOINT RightToeBase
					{
						OFFSET -0.970169 -13.225354 11.864223
						CHANNELS 3 Zrotation Yrotation Xrotation
						End Site
						{
							OFFSET 0.000000 0.000000 0.000000
						}
					}
				}
			}
		}
	}
	JOINT Spine_virtual
	{
		OFFSET 0.000000 0.000000 0.000000
		CHANNELS 3 Zrotation Yrotation Xrotation
		JOINT Spine
		{
			OFFSET 0.000000 7.722015 1.166203
			CHANNELS 3 Zrotation Yrotation Xrotation
			JOINT Spine1
			{
				OFFSET 0.000000 12.024086 0.248766
				CHANNELS 3 Zrotation Yrotation Xrotation
				JOINT Spine2
				{
					OFFSET -0.000000 11.503036 -0.491240
					CHANNELS 3 Zrotation Yrotation Xrotation
					JOINT Neck_virtual
					{
						OFFSET 0.000000 0.000000 0.000000
						CHANNELS 3 Zrotation Yrotation Xrotation
						JOINT Neck
						{
							OFFSET 0.000000 18.430687 -3.123054
							CHANNELS 3 Zrotation Yrotation Xrotation
							JOINT Head
							{
								OFFSET -0.000000 9.051071 1.034021
								CHANNELS 3 Zrotation Yrotation Xrotation
								End Site
								{
									OFFSET 0.000000 0.000000 0.000000
								}
							}
						}
					}
					JOINT LeftShoulder_virtual
					{
						OFFSET 0.000000 0.000000 0.000000
						CHANNELS 3 Zrotation Yrotation Xrotation
						JOINT LeftShoulder
						{
							OFFSET 6.197824 13.665230 -4.064723
							CHANNELS 3 Zrotation Yrotation Xrotation
							JOINT LeftArm
							{
								OFFSET 7.778132 -0.187073 -1.709282
								CHANNELS 3 Zrotation Yrotation Xrotation
								JOINT LeftForeArm
								{
									OFFSET 21.954697 0.000000 -2.041093
									CHANNELS 3 Zrotation Yrotation Xrotation
									JOINT LeftHand
									{
										OFFSET 22.992908 0.000000 -0.870901
										CHANNELS 3 Zrotation Yrotation Xrotation
										End Site
										{
											OFFSET 0.000000 0.000000 0.000000
										}
									}
								}
							}
						}
					}
					JOINT RightShoulder_virtual
					{
						OFFSET 0.000000 0.000000 0.000000
						CHANNELS 3 Zrotation Yrotation Xrotation
						JOINT RightShoulder
						{
							OFFSET -6.197824 13.665230 -4.064723
							CHANNELS 3 Zrotation Yrotation Xrotation
							JOINT RightArm
							{
								OFFSET -7.778132 -0.187073 -1.709282
								CHANNELS 3 Zrotation Yrotation Xrotation
								JOINT RightForeArm
								{
									OFFSET -21.954697 0.000000 -2.041093
									CHANNELS 3 Zrotation Yrotation Xrotation
									JOINT RightHand
									{
										OFFSET -22.992908 0.000000 -0.870901
										CHANNELS 3 Zrotation Yrotation Xrotation
										End Site
										{
											OFFSET 0.000000 0.000000 0.000000
										}
									}
								}
							}
						}
					}
				}
			}
		}
	}
}
MOTION
Frames: 11
Frame Time: 0.033333
8.856315 81.334465 17.678257 -179.962685 -13.729485 -179.962330 -1.623152 -0.308348 14.837377 3.347247 -1.999625 -22.861427 2.298892 3.671269 26.174931 2.340029 -8.012476 -9.948561 0.000000 0.000000 0.000000 2.410005 -2.127380 15.331956 -7.021101 12.658173 -24.317562 -1.112594 8.591687 28.492459 10.643430 3.957211 -12.453240 0.000000 0.000000 0.000000 3.809775 0.438132 4.790812 1.211402 -0.267988 -6.065260 -0.357913 -2.353255 5.630692 -0.065346 -0.087717 -0.046952 -0.765750 -0.788541 6.365279 -1.798877 1.437829 -4.558117 0.000000 0.000000 0.000000 0.822437 -0.047468 3.666875 -9.141897 -1.970802 0.910560 -57.103967 -8.581500 -2.139020 4.084221 -26.074857 3.744508 0.000000 0.000000 0.000000 -3.481284 1.261955 2.860936 27.248905 -2.045769 6.335424 48.491263 7.780188 6.201525 -1.991341 25.632843 -2.455572 0.000000 0.000000 0.000000 
8.862301 81.317497 17.653917 -179.797545 -14.194919 -179.975444 -1.724547 0.096262 14.697788 3.055422 -1.330266 -23.343879 2.255947 4.294314 27.143011 2.430705 -7.890219 -9.918644 0.000000 0.000000 0.000000 2.313870 -1.900713 15.335530 -7.268509 13.113914 -24.359453 -1.235251 8.973579 28.274220 10.559689 3.848219 -12.002592 0.000000 0.000000 0.000000 3.899368 0.181375 4.688516 1.318952 -0.346479 -6.114394 -0.334917 -2.457196 5.606822 -0.080685 -0.215785 -0.001893 -0.751747 -0.708230 6.321424 -1.808699 1.414165 -4.622520 0.000000 0.000000 0.000000 0.857617 -0.085153 3.565773 -9.145285 -2.063503 0.947284 -57.043465 -9.160102 -1.943758 3.997589 -26.491703 3.705376 0.000000 0.000000 0.000000 -3.508363 1.305171 2.845962 27.163323 -1.940489 6.363626 48.448506 8.161227 6.313505 -2.022704 25.874490 -2.524087 0.000000 0.000000 0.000000 
8.866608 81.312569 17.620998 -179.798241 -14.185442 -179.970335 -1.725256 0.092825 14.716493 3.047655 -1.289089 -23.364656 2.266718 4.258792 27.175747 2.427101 -7.898501 -9.942379 0.000000 0.000000 0.000000 2.308361 -1.920305 15.348504 -7.249530 13.101553 -24.353004 -1.229090 8.981247 28.267385 10.538891 3.889935 -12.011449 0.000000 0.000000 0.000000 3.864397 0.262989 4.657783 1.304805 -0.374466 -6.203071 -0.328066 -2.422058 5.580363 -0.054112 -0.151462 0.048863 -0.788820 -0.830844 6.270155 -1.794725 1.396742 -4.622059 0.000000 0.000000 0.000000 0.786024 -0.122488 3.615054 -9.171462 -2.301470 0.863291 -56.773714 -10.280189 -1.581841 3.785225 -26.783755 3.849261 0.000000 0.000000 0.000000 -3.565214 1.189133 2.833291 27.171283 -1.710800 6.503628 48.253360 8.747217 6.572786 -2.073238 26.124138 -2.504368 0.000000 0.000000 0.000000 
8.861895 81.309830 17.588684 -179.786780 -14.186361 -179.971168 -1.737628 0.081902 14.719030 3.041682 -1.258917 -23.349335 2.316263 4.236744 27.196961 2.413537 -7.915405 -9.972541 0.000000 0.000000 0.000000 2.285155 -1.959241 15.356716 -7.228560 13.099289 -24.330338 -1.220271 8.977258 28.241318 10.490384 3.935085 -12.012856 0.000000 0.000000 0.000000 3.857242 0.100494 4.595098 1.293009 -0.379684 -6.277046 -0.353308 -2.380555 5.563394 -0.080737 -0.200538 0.059186 -0.759737 -0.723187 6.352314 -1.806756 1.443737 -4.536323 0.000000 0.000000 0.000000 0.833918 -0.041826 3.598467 -9.315495 -2.421109 0.828771 -56.502238 -11.399999 -1.167748 3.603549 -27.153204 3.862145 0.000000 0.000000 0.000000 -3.560304 1.344189 2.890607 27.144929 -1.494124 6.515688 47.988223 9.364547 6.655530 -1.928648 26.339540 -2.349540 0.000000 0.000000 0.000000 
8.859109 81.308304 17.550381 -179.785305 -14.135268 -179.988817 -1.734695 0.083334 14.690239 3.010007 -1.224641 -23.269242 2.357340 4.230247 27.206851 2.407858 -7.914246 -9.999384 0.000000 0.000000 0.000000 2.265647 -1.972581 15.359784 -7.211341 13.124190 -24.266631 -1.215258 8.993171 28.163006 10.437921 3.994513 -12.008602 0.000000 0.000000 0.000000 3.860657 0.263917 4.538453 1.275315 -0.433987 -6.357373 -0.353524 -2.359778 5.589860 -0.049205 -0.157207 0.012284 -0.793933 -0.745670 6.407066 -1.771567 1.436444 -4.493392 0.000000 0.000000 0.000000 0.766040 -0.109595 3.697590 -9.444952 -2.564198 0.752386 -56.208878 -12.455419 -0.832703 3.384524 -27.619142 3.860357 0.000000 0.000000 0.000000 -3.615753 1.317616 2.846593 27.149097 -1.283795 6.621711 47.672395 9.792400 6.757708 -1.962601 26.610268 -2.379251 0.000000 0.000000 0.000000 
8.855159 81.310303 17.507275 -179.766549 -14.122722 179.985183 -1.731722 0.069581 14.685296 2.987227 -1.184113 -23.228097 2.424241 4.207239 27.249368 2.376648 -7.924362 -10.007788 0.000000 0.000000 0.000000 2.254356 -2.031170 15.339138 -7.182740 13.152927 -24.185285 -1.204303 9.012719 28.134615 10.367837 4.044761 -12.033473 0.000000 0.000000 0.000000 3.909732 0.244897 4.478946 1.255437 -0.452920 -6.425628 -0.384054 -2.321625 5.655292 -0.018953 -0.149790 -0.037724 -0.822618 -0.739244 6.516713 -1.764063 1.454402 -4.420775 0.000000 0.000000 0.000000 0.748058 -0.127868 3.748173 -9.503387 -2.595504 0.635656 -56.008402 -13.262819 -0.738352 3.096639 -28.178787 3.920219 0.000000 0.000000 0.000000 -3.679729 1.311432 2.922127 27.166628 -1.070416 6.720950 47.328618 10.271520 6.679934 -1.972144 26.913411 -2.370158 0.000000 0.000000 0.000000 
8.859017 81.311943 17.460157 -179.771890 -14.093219 -179.994473 -1.736070 0.064609 14.697558 2.962509 -1.164535 -23.220871 2.478249 4.185936 27.268948 2.341839 -7.917924 -9.973000 0.000000 0.000000 0.000000 2.239058 -2.062769 15.302035 -7.162571 13.186549 -24.103956 -1.204180 9.034638 28.059303 10.292600 4.077301 -12.068387 0.000000 0.000000 0.000000 3.961444 0.177552 4.438306 1.249030 -0.491169 -6.497730 -0.428427 -2.297915 5.660899 -0.101364 -0.159915 -0.024905 -0.799485 -0.671145 6.614693 -1.850365 1.522784 -4.308172 0.000000 0.000000 0.000000 0.786155 -0.024692 3.816603 -9.511504 -2.612430 0.474544 -55.822955 -13.841500 -0.615593 2.912010 -28.791269 3.831458 0.000000 0.000000 0.000000 -3.664080 1.469778 2.888576 27.221652 -0.884532 6.833573 46.946533 10.522686 6.459629 -1.906274 27.259415 -2.261695 0.000000 0.000000 0.000000 
8.871655 81.311714 17.410664 -179.766317 -14.030626 179.989077 -1.735620 0.080914 14.715349 2.956918 -1.159436 -23.190254 2.535341 4.175902 27.293774 2.309541 -7.890097 -9.986379 0.000000 0.000000 0.000000 2.233160 -2.081483 15.274533 -7.130034 13.221760 -24.033364 -1.196421 9.079497 28.026460 10.231401 4.113554 -12.151696 0.000000 0.000000 0.000000 4.015561 0.133768 4.407596 1.256110 -0.548244 -6.558649 -0.450303 -2.307698 5.671839 -0.095482 -0.185190 -0.024223 -0.875787 -0.557777 6.650691 -1.892264 1.579006 -4.250333 0.000000 0.000000 0.000000 0.717960 0.045974 3.835337 -9.412723 -2.541949 0.369183 -55.917324 -14.114734 -0.525063 2.888611 -29.089875 3.660449 0.000000 0.000000 0.000000 -3.732893 1.514092 2.928552 27.235951 -0.676542 6.894082 46.710810 10.737480 6.441758 -1.855926 27.394470 -2.283242 0.000000 0.000000 0.000000 
8.878530 81.311272 17.351093 -179.751195 -13.925301 179.944407 -1.751915 0.054622 14.685113 2.927634 -0.990443 -23.054730 2.595219 4.124428 27.305245 2.250335 -7.880017 -10.035675 0.000000 0.000000 0.000000 2.217024 -2.046851 15.295418 -7.086947 13.285278 -23.930544 -1.202714 9.111488 27.902743 10.183471 4.123010 -12.204407 0.000000 0.000000 0.000000 4.079240 0.195311 4.399817 1.275743 -0.565869 -6.561814 -0.492889 -2.281120 5.729175 -0.090801 -0.155541 0.037585 -0.908460 -0.608458 6.599017 -1.937190 1.627324 -4.174514 0.000000 0.000000 0.000000 0.643300 0.033467 3.757293 -9.247199 -2.554892 0.183953 -55.939867 -14.180273 -0.462222 2.671412 -28.884419 3.695245 0.000000 0.000000 0.000000 -3.748138 1.402912 2.900588 27.255984 -0.445292 6.924689 46.611403 10.707987 6.627256 -1.868614 27.353830 -2.343577 0.000000 0.000000 0.000000 
8.885231 81.304237 17.256605 -179.751372 -13.834594 179.928015 -1.772650 0.102219 14.703080 2.949893 -1.003749 -23.001425 2.645709 4.101125 27.357887 2.212632 -7.830992 -10.100393 0.000000 0.000000 0.000000 2.185394 -1.995989 15.330911 -7.019557 13.322427 -23.837408 -1.209750 9.140338 27.824719 10.152956 4.112819 -12.299729 0.000000 0.000000 0.000000 4.112659 0.199813 4.420016 1.310181 -0.573517 -6.559042 -0.522893 -2.289581 5.677291 -0.079627 -0.155321 0.012247 -0.958520 -0.568478 6.583035 -2.020713 1.730199 -4.300769 0.000000 0.000000 0.000000 0.602653 0.009097 3.858739 -8.920927 -2.569700 0.077380 -56.106025 -13.942665 -0.679247 2.796447 -28.176195 3.513214 0.000000 0.000000 0.000000 -3.798133 1.424353 2.989182 27.232118 -0.260826 7.015266 46.697354 10.482226 6.460915 -1.838397 26.977236 -2.417350 0.000000 0.000000 0.000000 
8.889745 81.286903 17.109943 -179.751127 -13.740864 179.950418 -1.801304 0.166765 14.724590 2.990053 -1.008434 -22.970500 2.690226 4.052533 27.459572 2.177221 -7.771478 -10.213563 0.000000 0.000000 0.000000 2.138772 -1.923537 15.375019 -6.920235 13.344126 -23.743116 -1.215764 9.151115 27.762825 10.148053 4.089280 -12.397106 0.000000 0.000000 0.000000 4.086769 0.265682 4.430979 1.363105 -0.574511 -6.631474 -0.507095 -2.288084 5.744957 -0.029574 -0.128040 -0.031290 -1.019115 -0.720840 6.649371 -2.046523 1.766911 -4.239902 0.000000 0.000000 0.000000 0.494652 -0.000799 3.891015 -8.453875 -2.536159 -0.041250 -56.211262 -13.361295 -1.696151 2.838025 -26.739018 3.600986 0.000000 0.000000 0.000000 -3.874314 1.422916 2.995311 27.135213 -0.234336 7.028582 46.868263 9.938540 5.974750 -1.839569 26.220406 -2.569230 0.000000 0.000000 0.000000 
